<?xml version="1.0" standalone="no"?>
<!DOCTYPE svg PUBLIC "-//W3C//DTD SVG 20010904//EN"
 "http://www.w3.org/TR/2001/REC-SVG-20010904/DTD/svg10.dtd">
<svg version="1.0" xmlns="http://www.w3.org/2000/svg"
 width="1600.000000pt" height="334.000000pt" viewBox="0 0 1600.000000 334.000000"
 preserveAspectRatio="xMidYMid meet">

<g transform="translate(0.000000,334.000000) scale(0.100000,-0.100000)"
fill="#000000" stroke="none">
<path d="M7869 2847 c-173 -64 -276 -245 -267 -468 3 -84 8 -104 37 -163 55
-112 146 -189 371 -316 291 -163 398 -280 430 -472 17 -96 7 -263 -20 -350
-40 -131 -131 -234 -248 -279 -82 -32 -240 -32 -334 -1 -195 67 -322 221 -322
391 0 87 30 150 93 196 105 77 247 70 345 -16 60 -53 89 -109 90 -174 0 -60
-15 -103 -61 -168 -19 -27 -32 -51 -30 -54 11 -10 154 138 179 184 36 66 41
100 24 157 -31 103 -105 170 -229 208 -90 27 -242 22 -329 -11 -159 -61 -258
-191 -258 -337 1 -116 80 -305 165 -389 127 -127 347 -191 573 -166 238 26
386 116 475 289 80 156 108 288 87 416 -31 193 -148 345 -460 596 -213 171
-270 222 -329 295 -77 94 -105 163 -105 255 0 64 4 83 29 128 50 93 137 145
240 145 111 1 214 -72 270 -190 14 -31 28 -53 31 -50 7 6 -11 125 -27 181 -13
49 -65 96 -149 138 -56 28 -77 33 -150 35 -53 2 -99 -2 -121 -10z"/>
<path d="M5261 1752 c-203 -406 -362 -735 -360 -746 6 -26 40 -46 64 -36 14 6
120 208 340 649 176 352 322 640 325 641 3 0 150 -290 327 -644 225 -449 327
-645 340 -648 28 -7 60 8 66 31 4 15 -105 240 -361 751 -202 402 -369 730
-372 730 -3 0 -169 -327 -369 -728z"/>
<path d="M3250 2171 c0 -247 0 -250 22 -265 29 -20 34 -20 58 4 19 19 20 33
20 215 l0 195 542 0 543 0 -280 -275 -279 -275 -119 0 -118 0 -86 85 -87 86
-110 -111 -111 -110 112 -112 113 -113 88 88 87 87 140 0 140 0 368 368 c202
202 367 370 367 375 0 4 -317 7 -705 7 l-705 0 0 -249z m263 -419 l37 -38 -40
-39 -40 -39 -40 39 -40 39 37 38 c20 21 40 38 43 38 3 0 23 -17 43 -38z"/>
<path d="M9640 2402 l-21 -17 3 -415 4 -415 28 -77 c83 -230 241 -380 476
-450 96 -29 280 -28 375 2 119 37 203 88 286 170 42 41 85 89 97 105 l21 30 1
-170 c0 -119 4 -175 12 -183 19 -19 66 -15 78 7 6 13 10 250 10 700 0 668 0
681 -20 701 -25 25 -42 25 -63 2 -15 -17 -17 -59 -17 -391 0 -416 -2 -435 -68
-571 -27 -54 -58 -96 -112 -151 -96 -98 -186 -144 -322 -166 -86 -14 -104 -14
-186 0 -202 34 -352 144 -441 324 -57 114 -61 150 -61 566 0 364 -1 378 -20
397 -24 24 -32 25 -60 2z"/>
<path d="M11769 2401 c-20 -16 -22 -23 -14 -47 l10 -29 330 -5 330 -5 3 -654
c1 -463 5 -658 13 -668 17 -20 67 -16 79 6 6 13 10 241 10 670 l0 651 323 0
c341 0 347 1 347 46 0 55 13 54 -726 54 -654 0 -683 -1 -705 -19z"/>
<path d="M13920 2175 c0 -232 1 -246 20 -265 24 -24 29 -24 58 -4 21 15 22 20
22 215 l0 199 542 0 543 0 -275 -275 -275 -275 -120 0 -120 0 -85 85 -85 85
-112 -112 -113 -113 107 -107 c59 -60 112 -108 118 -108 6 0 48 38 95 85 l85
85 135 0 135 0 375 375 375 375 -713 0 -712 0 0 -245z m300 -459 c0 -13 -61
-76 -74 -76 -13 0 -76 61 -76 74 0 6 17 27 37 48 l37 38 38 -37 c21 -20 38
-42 38 -47z"/>
<path d="M1182 2292 l-123 -117 1 -130 0 -130 128 -128 127 -127 425 0 425 0
98 -98 97 -97 0 -91 0 -92 -95 -91 -96 -91 -542 0 c-409 0 -546 -3 -555 -12
-19 -19 -14 -55 10 -72 20 -14 91 -16 576 -16 l553 0 124 121 125 122 0 131 0
131 -128 128 -127 127 -425 0 -425 0 -98 98 -97 97 0 91 0 90 92 85 92 84 547
5 c401 4 551 8 560 17 16 16 15 63 -2 74 -8 5 -268 9 -579 9 l-565 -1 -123
-117z"/>
<path d="M7457 1882 c-53 -53 -97 -102 -97 -107 0 -6 45 -55 100 -110 l100
-100 105 105 105 105 -102 102 c-57 57 -105 103 -108 103 -3 0 -49 -44 -103
-98z m167 -51 l48 -49 -27 -36 c-15 -20 -41 -46 -57 -58 l-30 -21 -54 54 -54
53 52 53 c29 29 57 53 63 53 6 0 33 -22 59 -49z"/>
<path d="M10212 1877 c-50 -51 -92 -97 -92 -102 0 -12 181 -195 193 -195 4 0
51 43 104 95 l98 94 -100 101 c-55 55 -102 100 -105 100 -3 0 -47 -42 -98 -93z
m156 -154 l-52 -53 -53 52 -53 52 52 53 52 53 53 -52 53 -52 -52 -53z"/>
<path d="M5527 1612 l-97 -97 100 -100 100 -100 100 100 100 100 -97 97 c-54
54 -100 98 -103 98 -3 0 -49 -44 -103 -98z m203 -97 c0 -6 -23 -33 -50 -60
l-50 -50 -52 53 -53 52 55 55 54 55 48 -47 c26 -26 48 -52 48 -58z"/>
<path d="M3268 1539 c-16 -9 -18 -34 -18 -282 0 -199 3 -276 12 -285 19 -19
66 -15 78 7 6 12 10 119 10 279 0 238 -1 260 -18 275 -21 19 -39 21 -64 6z"/>
<path d="M13937 1532 c-15 -16 -17 -51 -17 -278 0 -268 2 -283 41 -297 9 -3
26 1 38 9 21 15 21 22 21 289 0 261 -1 275 -19 285 -28 15 -46 12 -64 -8z"/>
<path d="M3612 737 c-50 -51 -92 -97 -92 -102 0 -6 43 -53 95 -105 l95 -95
100 100 100 100 -97 97 c-54 54 -100 98 -103 98 -3 0 -47 -42 -98 -93z m198
-101 c0 -6 -21 -32 -47 -58 l-47 -48 -53 52 -53 52 52 53 52 53 48 -47 c26
-26 48 -52 48 -57z"/>
<path d="M12347 732 l-97 -97 100 -100 100 -100 100 100 100 100 -97 97 c-54
54 -100 98 -103 98 -3 0 -49 -44 -103 -98z m190 -111 c-7 -9 -30 -33 -51 -54
l-39 -38 -48 47 c-27 27 -49 53 -49 58 0 6 21 32 47 58 l47 48 53 -52 c44 -43
50 -54 40 -67z"/>
<path d="M1110 635 l0 -35 1155 0 1155 0 0 35 0 35 -1155 0 -1155 0 0 -35z"/>
<path d="M4004 656 c-3 -8 -4 -23 -2 -33 3 -17 52 -18 1158 -18 l1155 0 0 30
0 30 -1153 3 c-998 2 -1153 0 -1158 -12z"/>
<path d="M9670 635 l0 -35 1235 0 1235 0 0 35 0 35 -1235 0 -1235 0 0 -35z"/>
<path d="M12760 635 l0 -35 1236 0 1235 0 -3 33 -3 32 -1232 3 -1233 2 0 -35z"/>
</g>
</svg>
